<?xml version="1.0" standalone="no"?>
<!DOCTYPE svg PUBLIC "-//W3C//DTD SVG 20010904//EN"
 "http://www.w3.org/TR/2001/REC-SVG-20010904/DTD/svg10.dtd">
<svg version="1.0" xmlns="http://www.w3.org/2000/svg"
 width="512.000000pt" height="512.000000pt" viewBox="0 0 512.000000 512.000000"
 preserveAspectRatio="xMidYMid meet">

<g transform="translate(0.000000,512.000000) scale(0.100000,-0.100000)"
fill="#000000" stroke="none">
<path d="M2560 4625 l0 -145 769 0 768 0 22 -57 c45 -123 161 -240 295 -299
l66 -28 0 -589 c0 -585 0 -589 21 -619 28 -39 85 -174 103 -246 59 -225 31
-470 -75 -680 l-49 -95 0 -104 c0 -81 -3 -103 -14 -103 -7 0 -43 -15 -80 -33
l-66 -34 0 49 0 48 -62 -46 c-132 -97 -284 -162 -431 -185 -113 -18 -304 -6
-410 25 -106 31 -220 88 -304 150 l-63 46 0 -200 0 -200 -245 0 -245 0 0 -145
0 -145 245 0 245 0 0 -417 c0 -270 4 -432 11 -458 21 -76 93 -124 165 -111 18
4 93 46 166 95 73 48 170 111 215 140 l81 52 211 -140 c122 -82 225 -143 245
-146 75 -15 147 36 165 115 6 27 11 215 11 473 0 415 1 429 20 456 12 16 25
55 31 95 16 113 61 179 154 222 28 13 68 24 90 24 53 0 104 27 132 69 l23 34
0 1386 c0 1365 0 1386 -20 1419 -27 44 -70 68 -136 76 -74 9 -121 29 -167 74
-41 40 -77 123 -77 180 0 46 -30 96 -72 122 -32 19 -52 20 -885 20 l-853 0 0
-145z"/>
<path d="M2215 3831 c-316 -5 -354 -8 -378 -24 -66 -43 -87 -135 -44 -198 45
-68 18 -66 729 -74 354 -4 665 -4 692 0 38 6 60 17 89 45 35 32 41 43 44 91 4
45 1 60 -19 88 -12 19 -36 44 -51 55 -28 20 -40 21 -370 22 -188 0 -500 -2
-692 -5z"/>
<path d="M1386 3020 c-65 -20 -115 -103 -100 -167 10 -39 41 -81 72 -97 22
-11 159 -14 724 -17 l698 -4 42 85 c24 47 65 113 91 148 l48 62 -773 -1 c-425
0 -786 -5 -802 -9z"/>
<path d="M1963 2380 l-591 -5 -27 -25 c-32 -29 -55 -78 -55 -116 0 -38 37 -98
73 -120 31 -18 63 -19 721 -22 l688 -3 -6 23 c-12 42 -35 162 -41 221 l-6 57
-82 -2 c-45 -2 -348 -5 -674 -8z"/>
</g>
</svg>
